<?xml version="1.0"?>
<svg xmlns="http://www.w3.org/2000/svg" height="512px" viewBox="-102 -26 852 852.49827" width="512px" stroke="black" stroke-width="15"><path d="m318.152344 195.554688c65.902344 0 121.011718 50.605468 126.601562 116.105468 1.097656 12.882813 12.449219 22.441406 25.316406 21.332032 12.882813-1.097657 22.4375-12.429688 21.339844-25.316407-7.636718-89.488281-82.785156-158.949219-173.257812-158.949219-95.882813 0-173.886719 78.011719-173.886719 173.894532 0 49.347656 21.121094 96.578125 57.953125 129.5625 11.34375 10.164062 26.117188 5.929687 33.0625-1.824219 8.625-9.625 7.808594-24.429687-1.824219-33.058594-26.921875-24.117187-42.363281-58.628906-42.363281-94.679687 0-70.066406 57-127.066406 127.058594-127.066406zm0 0" fill="#006DF0"/><path d="m225.652344 584.347656c-110.679688-39.167968-185.039063-144.355468-185.039063-261.726562 0-153.03125 124.507813-277.539063 277.539063-277.539063 153.039062 0 277.546875 124.507813 277.546875 277.539063 0 28.332031-4.257813 56.265625-12.648438 83.019531-3.871093 12.335937 2.996094 25.472656 15.335938 29.347656 12.335937 3.867188 25.472656-3 29.347656-15.335937 9.820313-31.296875 14.792969-63.941406 14.792969-97.03125 0-178.855469-145.511719-324.371094-324.375-324.371094-178.855469 0-324.367188 145.515625-324.367188 324.371094 0 137.175781 86.902344 260.097656 216.238282 305.875 12.734374 4.507812 25.773437-2.648438 29.890624-14.265625 4.308594-12.1875-2.074218-25.566407-14.261718-29.882813zm0 0" fill="#006DF0"/><path d="m633.164062 529.601562-300.960937-225.714843c-7.097656-5.324219-16.589844-6.175781-24.519531-2.214844-7.929688 3.96875-12.945313 12.070313-12.945313 20.945313v376.195312c0 17.394531 18.34375 28.710938 33.886719 20.941406l300.957031-150.476562c15.5625-7.78125 17.472657-29.25 3.582031-39.675782zm0 0" fill="#006DF0"/><path d="m520.992188 675.933594-41.886719 20.9375 43.824219 87.652344c5.804687 11.613281 19.898437 16.230468 31.414062 10.46875 11.566406-5.78125 16.257812-19.847657 10.46875-31.414063zm0 0" fill="#006DF0"/></svg>
